<svg width="162" height="92" viewBox="0 0 162 92" fill="none" xmlns="http://www.w3.org/2000/svg">
<path d="M14.7607 19.9829C16.3031 19.9829 17.6208 20.5295 18.7139 21.6226C19.807 22.7082 20.3535 24.0259 20.3535 25.5757C20.3535 27.118 19.807 28.4357 18.7139 29.5288C17.6208 30.6219 16.3031 31.1685 14.7607 31.1685C13.7201 31.1685 12.7804 30.9176 11.9419 30.416V28.0801C12.8179 28.8288 13.7575 29.2031 14.7607 29.2031C15.764 29.2031 16.6175 28.8475 17.3213 28.1362C18.0326 27.425 18.3882 26.5715 18.3882 25.5757C18.3882 24.5724 18.0326 23.7189 17.3213 23.0151C16.6175 22.3039 15.764 21.9482 14.7607 21.9482C13.7575 21.9482 12.9002 22.3039 12.189 23.0151C11.4852 23.7189 11.1333 24.5724 11.1333 25.5757H11.1221V35.5371H9.16797V25.5757C9.16797 24.0259 9.71452 22.7082 10.8076 21.6226C11.9007 20.5295 13.2184 19.9829 14.7607 19.9829ZM30.8428 25.5869C30.8428 24.5911 30.4871 23.7376 29.7759 23.0264C29.0721 22.3151 28.2186 21.9595 27.2153 21.9595C26.2121 21.9595 25.3548 22.3151 24.6436 23.0264C23.9398 23.7376 23.5879 24.5911 23.5879 25.5869C23.5879 26.5902 23.9398 27.4474 24.6436 28.1587C25.3548 28.8625 26.2121 29.2144 27.2153 29.2144C28.2186 29.2144 29.0721 28.8625 29.7759 28.1587C30.4871 27.4474 30.8428 26.5902 30.8428 25.5869ZM21.6226 25.5869C21.6226 24.0446 22.1691 22.7269 23.2622 21.6338C24.3553 20.5407 25.673 19.9941 27.2153 19.9941C28.7576 19.9941 30.0754 20.5407 31.1685 21.6338C32.2616 22.7269 32.8081 24.0446 32.8081 25.5869C32.8081 27.1367 32.2616 28.4582 31.1685 29.5513C30.0754 30.6369 28.7576 31.1797 27.2153 31.1797C25.673 31.1797 24.3553 30.6369 23.2622 29.5513C22.1691 28.4582 21.6226 27.1367 21.6226 25.5869ZM34.8071 14.334H36.7612V23.8911H38.0078C39.1009 23.8911 40.3026 22.6445 41.6128 20.1514H43.8701C42.8594 21.9782 41.8262 23.397 40.7705 24.4077C41.5267 24.4077 42.1369 24.6323 42.6011 25.0815C43.0728 25.5233 43.3273 26.1185 43.3647 26.8672V31H41.3994V27.7993C41.3994 27.2153 41.2534 26.7437 40.9614 26.3843C40.6694 26.0174 40.3026 25.834 39.8608 25.834H36.7612V31H34.8071V14.334ZM46.9697 25.5757C46.9697 26.5789 47.3216 27.4362 48.0254 28.1475C48.7367 28.8512 49.5939 29.2031 50.5972 29.2031C51.6004 29.2031 52.4577 28.8475 53.1689 28.1362C53.6631 27.6421 53.9813 27.0768 54.1235 26.4404L56.0776 26.7212C55.8755 27.7843 55.3664 28.7202 54.5503 29.5288C53.4572 30.6219 52.1395 31.1685 50.5972 31.1685C49.0549 31.1685 47.7371 30.6257 46.644 29.54C45.5509 28.4469 45.0044 27.1255 45.0044 25.5757C45.0044 24.0334 45.5509 22.7157 46.644 21.6226C47.7371 20.5295 49.0549 19.9829 50.5972 19.9829C52.0646 19.9829 53.2363 20.3722 54.1123 21.1509C54.9958 21.922 55.5124 22.5809 55.6621 23.1274L48.5083 27.0469L47.6772 25.6094L52.8882 22.7568C52.2368 22.2178 51.4731 21.9482 50.5972 21.9482C49.5939 21.9482 48.7367 22.3039 48.0254 23.0151C47.3216 23.7264 46.9697 24.5799 46.9697 25.5757ZM46.8125 13.9072H48.8677L52.4053 17.7817H50.7319L46.8125 13.9072ZM63.5459 19.9829C65.0882 19.9829 66.4059 20.5295 67.499 21.6226C68.5921 22.7082 69.1387 24.0259 69.1387 25.5757C69.1387 27.118 68.5921 28.4357 67.499 29.5288C66.4059 30.6219 65.0882 31.1685 63.5459 31.1685C62.5052 31.1685 61.5656 30.9176 60.7271 30.416V28.0801C61.603 28.8288 62.5426 29.2031 63.5459 29.2031C64.5492 29.2031 65.4027 28.8475 66.1064 28.1362C66.8177 27.425 67.1733 26.5715 67.1733 25.5757C67.1733 24.5724 66.8177 23.7189 66.1064 23.0151C65.4027 22.3039 64.5492 21.9482 63.5459 21.9482C62.5426 21.9482 61.6854 22.3039 60.9741 23.0151C60.2703 23.7189 59.9185 24.5724 59.9185 25.5757H59.9072V35.5371H57.9531V25.5757C57.9531 24.0259 58.4997 22.7082 59.5928 21.6226C60.6859 20.5295 62.0036 19.9829 63.5459 19.9829ZM72.373 25.5757C72.373 26.5789 72.7249 27.4362 73.4287 28.1475C74.14 28.8512 74.9972 29.2031 76.0005 29.2031C77.0037 29.2031 77.861 28.8475 78.5723 28.1362C79.0664 27.6421 79.3846 27.0768 79.5269 26.4404L81.481 26.7212C81.2788 27.7843 80.7697 28.7202 79.9536 29.5288C78.8605 30.6219 77.5428 31.1685 76.0005 31.1685C74.4582 31.1685 73.1405 30.6257 72.0474 29.54C70.9543 28.4469 70.4077 27.1255 70.4077 25.5757C70.4077 24.0334 70.9543 22.7157 72.0474 21.6226C73.1405 20.5295 74.4582 19.9829 76.0005 19.9829C77.4679 19.9829 78.6396 20.3722 79.5156 21.1509C80.3991 21.922 80.9157 22.5809 81.0654 23.1274L73.9116 27.0469L73.0806 25.6094L78.2915 22.7568C77.6401 22.2178 76.8765 21.9482 76.0005 21.9482C74.9972 21.9482 74.14 22.3039 73.4287 23.0151C72.7249 23.7264 72.373 24.5799 72.373 25.5757ZM88.5225 31.1685C86.9801 31.1685 85.6624 30.6257 84.5693 29.54C83.4762 28.4469 82.9297 27.1255 82.9297 25.5757C82.9297 24.0334 83.4762 22.7157 84.5693 21.6226C85.6624 20.5295 86.9801 19.9829 88.5225 19.9829C89.5632 19.9829 90.5028 20.2337 91.3413 20.7354V23.0713C90.4653 22.3226 89.5257 21.9482 88.5225 21.9482C87.5192 21.9482 86.6619 22.3039 85.9507 23.0151C85.2469 23.7264 84.895 24.5799 84.895 25.5757C84.895 26.5789 85.2469 27.4362 85.9507 28.1475C86.6619 28.8512 87.5192 29.2031 88.5225 29.2031C89.5257 29.2031 90.3792 28.8512 91.083 28.1475C91.7943 27.4362 92.1499 26.5789 92.1499 25.5757H92.1611V14.334H94.1152V25.5757C94.1152 27.1255 93.5687 28.4469 92.4756 29.54C91.3825 30.6257 90.0648 31.1685 88.5225 31.1685ZM96.4175 20.1514H98.3716V31H96.4175V20.1514ZM97.3945 17.894C97.0876 17.894 96.8218 17.7855 96.5972 17.5684C96.38 17.3438 96.2715 17.078 96.2715 16.771C96.2715 16.4565 96.38 16.1908 96.5972 15.9736C96.8218 15.7565 97.0876 15.6479 97.3945 15.6479C97.7015 15.6479 97.9635 15.7565 98.1807 15.9736C98.4053 16.1908 98.5176 16.4565 98.5176 16.771C98.5176 17.078 98.4053 17.3438 98.1807 17.5684C97.9635 17.7855 97.7015 17.894 97.3945 17.894ZM111.713 25.5757V31H109.748V25.5757C109.748 24.5799 109.392 23.7264 108.681 23.0151C107.977 22.3039 107.124 21.9482 106.121 21.9482C105.117 21.9482 104.26 22.3039 103.549 23.0151C102.845 23.7264 102.493 24.5799 102.493 25.5757C102.493 26.5789 102.845 27.4362 103.549 28.1475C104.26 28.8512 105.117 29.2031 106.121 29.2031C106.72 29.2031 107.27 29.0758 107.771 28.8213L108.67 30.5732C107.899 30.9701 107.049 31.1685 106.121 31.1685C104.578 31.1685 103.261 30.6257 102.167 29.54C101.074 28.4469 100.528 27.1255 100.528 25.5757C100.528 24.0334 101.074 22.7157 102.167 21.6226C103.261 20.5295 104.578 19.9829 106.121 19.9829C107.663 19.9829 108.981 20.5295 110.074 21.6226C111.167 22.7157 111.713 24.0334 111.713 25.5757Z" fill="#04AB0F"/>
<path d="M17.4062 61.6719C19.5521 61.6719 21.3854 62.4323 22.9062 63.9531C24.4271 65.4635 25.1875 67.2969 25.1875 69.4531C25.1875 71.599 24.4271 73.4323 22.9062 74.9531C21.3854 76.474 19.5521 77.2344 17.4062 77.2344C15.9583 77.2344 14.651 76.8854 13.4844 76.1875V72.9375C14.7031 73.9792 16.0104 74.5 17.4062 74.5C18.8021 74.5 19.9896 74.0052 20.9688 73.0156C21.9583 72.026 22.4531 70.8385 22.4531 69.4531C22.4531 68.0573 21.9583 66.8698 20.9688 65.8906C19.9896 64.901 18.8021 64.4062 17.4062 64.4062C16.0104 64.4062 14.8177 64.901 13.8281 65.8906C12.849 66.8698 12.3594 68.0573 12.3594 69.4531H12.3438V83.3125H9.625V69.4531C9.625 67.2969 10.3854 65.4635 11.9062 63.9531C13.4271 62.4323 15.2604 61.6719 17.4062 61.6719ZM39.7812 69.4688C39.7812 68.0833 39.2865 66.8958 38.2969 65.9062C37.3177 64.9167 36.1302 64.4219 34.7344 64.4219C33.3385 64.4219 32.1458 64.9167 31.1562 65.9062C30.1771 66.8958 29.6875 68.0833 29.6875 69.4688C29.6875 70.8646 30.1771 72.0573 31.1562 73.0469C32.1458 74.026 33.3385 74.5156 34.7344 74.5156C36.1302 74.5156 37.3177 74.026 38.2969 73.0469C39.2865 72.0573 39.7812 70.8646 39.7812 69.4688ZM26.9531 69.4688C26.9531 67.3229 27.7135 65.4896 29.2344 63.9688C30.7552 62.4479 32.5885 61.6875 34.7344 61.6875C36.8802 61.6875 38.7135 62.4479 40.2344 63.9688C41.7552 65.4896 42.5156 67.3229 42.5156 69.4688C42.5156 71.625 41.7552 73.4635 40.2344 74.9844C38.7135 76.4948 36.8802 77.25 34.7344 77.25C32.5885 77.25 30.7552 76.4948 29.2344 74.9844C27.7135 73.4635 26.9531 71.625 26.9531 69.4688ZM45.2969 53.8125H48.0156V67.1094H49.75C51.2708 67.1094 52.9427 65.375 54.7656 61.9062H57.9062C56.5 64.4479 55.0625 66.4219 53.5938 67.8281C54.6458 67.8281 55.4948 68.1406 56.1406 68.7656C56.7969 69.3802 57.151 70.2083 57.2031 71.25V77H54.4688V72.5469C54.4688 71.7344 54.2656 71.0781 53.8594 70.5781C53.4531 70.0677 52.9427 69.8125 52.3281 69.8125H48.0156V77H45.2969V53.8125ZM62.2188 69.4531C62.2188 70.849 62.7083 72.0417 63.6875 73.0312C64.6771 74.0104 65.8698 74.5 67.2656 74.5C68.6615 74.5 69.8542 74.0052 70.8438 73.0156C71.5312 72.3281 71.974 71.5417 72.1719 70.6562L74.8906 71.0469C74.6094 72.526 73.901 73.8281 72.7656 74.9531C71.2448 76.474 69.4115 77.2344 67.2656 77.2344C65.1198 77.2344 63.2865 76.4792 61.7656 74.9688C60.2448 73.4479 59.4844 71.6094 59.4844 69.4531C59.4844 67.3073 60.2448 65.474 61.7656 63.9531C63.2865 62.4323 65.1198 61.6719 67.2656 61.6719C69.3073 61.6719 70.9375 62.2135 72.1562 63.2969C73.3854 64.3698 74.1042 65.2865 74.3125 66.0469L64.3594 71.5L63.2031 69.5L70.4531 65.5312C69.5469 64.7812 68.4844 64.4062 67.2656 64.4062C65.8698 64.4062 64.6771 64.901 63.6875 65.8906C62.7083 66.8802 62.2188 68.0677 62.2188 69.4531ZM62 53.2188H64.8594L69.7812 58.6094H67.4531L62 53.2188ZM85.2812 61.6719C87.4271 61.6719 89.2604 62.4323 90.7812 63.9531C92.3021 65.4635 93.0625 67.2969 93.0625 69.4531C93.0625 71.599 92.3021 73.4323 90.7812 74.9531C89.2604 76.474 87.4271 77.2344 85.2812 77.2344C83.8333 77.2344 82.526 76.8854 81.3594 76.1875V72.9375C82.5781 73.9792 83.8854 74.5 85.2812 74.5C86.6771 74.5 87.8646 74.0052 88.8438 73.0156C89.8333 72.026 90.3281 70.8385 90.3281 69.4531C90.3281 68.0573 89.8333 66.8698 88.8438 65.8906C87.8646 64.901 86.6771 64.4062 85.2812 64.4062C83.8854 64.4062 82.6927 64.901 81.7031 65.8906C80.724 66.8698 80.2344 68.0573 80.2344 69.4531H80.2188V83.3125H77.5V69.4531C77.5 67.2969 78.2604 65.4635 79.7812 63.9531C81.3021 62.4323 83.1354 61.6719 85.2812 61.6719ZM97.5625 69.4531C97.5625 70.849 98.0521 72.0417 99.0312 73.0312C100.021 74.0104 101.214 74.5 102.609 74.5C104.005 74.5 105.198 74.0052 106.188 73.0156C106.875 72.3281 107.318 71.5417 107.516 70.6562L110.234 71.0469C109.953 72.526 109.245 73.8281 108.109 74.9531C106.589 76.474 104.755 77.2344 102.609 77.2344C100.464 77.2344 98.6302 76.4792 97.1094 74.9688C95.5885 73.4479 94.8281 71.6094 94.8281 69.4531C94.8281 67.3073 95.5885 65.474 97.1094 63.9531C98.6302 62.4323 100.464 61.6719 102.609 61.6719C104.651 61.6719 106.281 62.2135 107.5 63.2969C108.729 64.3698 109.448 65.2865 109.656 66.0469L99.7031 71.5L98.5469 69.5L105.797 65.5312C104.891 64.7812 103.828 64.4062 102.609 64.4062C101.214 64.4062 100.021 64.901 99.0312 65.8906C98.0521 66.8802 97.5625 68.0677 97.5625 69.4531ZM120.031 77.2344C117.885 77.2344 116.052 76.4792 114.531 74.9688C113.01 73.4479 112.25 71.6094 112.25 69.4531C112.25 67.3073 113.01 65.474 114.531 63.9531C116.052 62.4323 117.885 61.6719 120.031 61.6719C121.479 61.6719 122.786 62.0208 123.953 62.7188V65.9688C122.734 64.9271 121.427 64.4062 120.031 64.4062C118.635 64.4062 117.443 64.901 116.453 65.8906C115.474 66.8802 114.984 68.0677 114.984 69.4531C114.984 70.849 115.474 72.0417 116.453 73.0312C117.443 74.0104 118.635 74.5 120.031 74.5C121.427 74.5 122.615 74.0104 123.594 73.0312C124.583 72.0417 125.078 70.849 125.078 69.4531H125.094V53.8125H127.812V69.4531C127.812 71.6094 127.052 73.4479 125.531 74.9688C124.01 76.4792 122.177 77.2344 120.031 77.2344ZM131.016 61.9062H133.734V77H131.016V61.9062ZM132.375 58.7656C131.948 58.7656 131.578 58.6146 131.266 58.3125C130.964 58 130.812 57.6302 130.812 57.2031C130.812 56.7656 130.964 56.3958 131.266 56.0938C131.578 55.7917 131.948 55.6406 132.375 55.6406C132.802 55.6406 133.167 55.7917 133.469 56.0938C133.781 56.3958 133.938 56.7656 133.938 57.2031C133.938 57.6302 133.781 58 133.469 58.3125C133.167 58.6146 132.802 58.7656 132.375 58.7656ZM152.297 69.4531V77H149.562V69.4531C149.562 68.0677 149.068 66.8802 148.078 65.8906C147.099 64.901 145.911 64.4062 144.516 64.4062C143.12 64.4062 141.927 64.901 140.938 65.8906C139.958 66.8802 139.469 68.0677 139.469 69.4531C139.469 70.849 139.958 72.0417 140.938 73.0312C141.927 74.0104 143.12 74.5 144.516 74.5C145.349 74.5 146.115 74.3229 146.812 73.9688L148.062 76.4062C146.99 76.9583 145.807 77.2344 144.516 77.2344C142.37 77.2344 140.536 76.4792 139.016 74.9688C137.495 73.4479 136.734 71.6094 136.734 69.4531C136.734 67.3073 137.495 65.474 139.016 63.9531C140.536 62.4323 142.37 61.6719 144.516 61.6719C146.661 61.6719 148.495 62.4323 150.016 63.9531C151.536 65.474 152.297 67.3073 152.297 69.4531Z" fill="#04AB0F"/>
<rect x="0.5" y="0.5" width="161" height="91" rx="4.5" stroke="#7B61FF" stroke-dasharray="10 5"/>
</svg>
